<svg width="162" height="31" viewBox="0 0 162 31" fill="none" xmlns="http://www.w3.org/2000/svg"><path d="M0 16.27C0 8.14 6.6 1.55 14.72 1.55h132.56a14.73 14.73 0 010 29.45H14.72C6.6 31 0 24.4 0 16.27z" fill="#FFDA00"/><path d="M38.23 16a2.45 2.45 0 011.45 2.37c0 1.84-1.35 2.82-3.94 2.82H30.4V11.18h5.38c2.35 0 3.57.93 3.57 2.68 0 .98-.38 1.7-1.12 2.13zm-2.74-2.9H32.9v1.94h2.59c.88 0 1.29-.35 1.29-.97s-.4-.96-1.29-.96zm.1 6.16c.99 0 1.44-.43 1.44-1.18 0-.76-.45-1.18-1.43-1.18h-2.7v2.36h2.7zM48.7 17.6v.56h-6c.2 1.1.98 1.53 2 1.53s1.4-.44 1.55-.72h2.28c-.34 1.38-1.61 2.4-3.93 2.4-2.72 0-4.27-1.43-4.27-3.75 0-2.4 1.65-3.9 4.33-3.9 2.58 0 4.04 1.38 4.04 3.88zm-5.96-.83h3.57c-.04-.68-.52-1.37-1.7-1.37-.97 0-1.65.44-1.87 1.37zm12.36 4.42l-2.02-3.13-1.02.9v2.23H49.7V11.18h2.36v5.22l2.76-2.5h2.93l-2.94 2.69 3.1 4.6h-2.8zm4.77-8.12c-.8 0-1.36-.43-1.36-1.18 0-.74.56-1.18 1.36-1.18s1.36.44 1.36 1.18c0 .75-.56 1.18-1.36 1.18zm-1.18 8.12v-7.3h2.36v7.3h-2.36zm4.9-8.12c-.8 0-1.36-.43-1.36-1.18 0-.74.56-1.18 1.36-1.18s1.35.44 1.35 1.18c0 .75-.56 1.18-1.35 1.18zm-2.27 10.98v-1.78h.21c.64 0 .87-.15.87-1.03V13.9h2.37v7.45c0 1.79-.95 2.7-2.9 2.7h-.55zm10.2-2.86l-2.02-3.13-1.02.9v2.23h-2.36V11.18h2.36v5.22l2.76-2.5h2.93l-2.95 2.69 3.1 4.6h-2.8zm9.65.18c-1.87 0-2.8-.93-2.8-2.26 0-.97.48-1.72 2.32-2.15l2.4-.56c.36-.08.47-.18.47-.37 0-.37-.36-.7-1.32-.7-.93 0-1.34.3-1.36.85h-2.13c0-1.21.87-2.46 3.7-2.46 2.27 0 3.4.8 3.4 2.55v4.92h-2.11v-.73c-.44.42-1.2.91-2.57.91zm.6-1.6c1.09 0 1.82-.65 1.82-1.43v-.63c-.16.06-.26.07-.56.14l-1.46.37c-.73.18-.94.42-.94.77 0 .45.38.77 1.14.77zm7.86 1.6c-1.87 0-2.82-.93-2.82-2.26 0-.97.5-1.72 2.33-2.15l2.4-.56c.37-.08.47-.18.47-.37 0-.37-.36-.7-1.32-.7-.93 0-1.34.3-1.36.85h-2.12c0-1.21.87-2.46 3.7-2.46 2.26 0 3.4.8 3.4 2.55v4.92h-2.12v-.73c-.44.42-1.2.91-2.56.91zm.6-1.6c1.08 0 1.82-.65 1.82-1.43v-.63c-.17.06-.26.07-.56.14l-1.47.37c-.73.18-.94.42-.94.77 0 .45.38.77 1.14.77zm5.36 1.42v-7.3h2.25v.88c.47-.5 1.15-1.02 2.64-1.02 2.01 0 3.04.97 3.04 3v4.44h-2.36v-3.8c0-1.22-.46-1.7-1.41-1.7-1.12 0-1.8.66-1.8 1.93v3.57h-2.36zm13.88.18a3.3 3.3 0 01-2.38-.86v.68h-2.28V11.18h2.36v3.18a3.97 3.97 0 012.28-.64c2.2 0 3.78 1.34 3.78 3.84 0 2.45-1.53 3.81-3.76 3.81zm-.51-1.86c1.13 0 1.77-.76 1.77-1.97 0-1.2-.64-1.96-1.77-1.96-1.14 0-1.9.77-1.9 1.96 0 1.2.75 1.97 1.9 1.97zm9.35 1.86c-2.38 0-4.31-1.07-4.31-3.83 0-2.75 1.93-3.82 4.31-3.82 2.39 0 4.32 1.07 4.32 3.82 0 2.76-1.93 3.83-4.32 3.83zm0-1.86c1.02 0 1.84-.49 1.84-1.97 0-1.47-.82-1.96-1.84-1.96s-1.83.49-1.83 1.96c0 1.48.8 1.97 1.83 1.97zm8.84 1.86c-2.22 0-3.75-1.36-3.75-3.81 0-2.5 1.57-3.84 3.78-3.84 1 0 1.72.27 2.28.64v-3.18h2.36v10.01h-2.28v-.68a3.3 3.3 0 01-2.38.86zm.5-1.86c1.15 0 1.91-.77 1.91-1.97 0-1.19-.76-1.96-1.92-1.96-1.14 0-1.78.76-1.78 1.96s.64 1.97 1.78 1.97z" fill="#000"/></svg>