<svg width="73" height="73" viewBox="0 0 73 73" fill="none" xmlns="http://www.w3.org/2000/svg"><circle cx="36.5" cy="36.5" r="36.5" fill="#FFDA00"/><path d="M15.94 34.25l-4.83-12.77h3.33l3.42 9.48h.03l3.58-9.48h3.23l-4.92 12.77h-3.84zm11.47.23c-2.39 0-3.59-1.19-3.59-2.9 0-1.22.63-2.18 2.97-2.73l3.05-.71c.48-.11.61-.23.61-.48 0-.47-.45-.9-1.69-.9-1.18 0-1.7.4-1.73 1.1h-2.7c0-1.55 1.1-3.15 4.7-3.15 2.9 0 4.34 1.02 4.34 3.26v6.28h-2.69v-.93a4.5 4.5 0 01-3.27 1.16zm.76-2.05c1.39 0 2.33-.83 2.33-1.81v-.81c-.21.08-.34.09-.72.18l-1.87.47c-.92.23-1.2.54-1.2.98 0 .57.49.98 1.46.98zm11.13 2.05c-3.5 0-4.88-1.42-4.88-3.2h2.92c.03.46.53 1.16 2.12 1.16 1.1 0 1.64-.35 1.64-.82 0-.99-2.24-.96-4-1.5-1.3-.39-2.3-1.07-2.3-2.47 0-1.86 1.78-2.94 4.56-2.94 3.24 0 4.35 1.46 4.46 3.15h-2.77c-.1-.56-.57-1.1-1.87-1.1-.96 0-1.41.3-1.41.7 0 .92 2.43.83 4.29 1.5 1.14.4 2.08 1.1 2.08 2.5 0 1.88-1.69 3.02-4.84 3.02zm10.34-.1c-2.5 0-3.53-1.2-3.53-3.4v-3.66h-1.33v-2.38h1.36V22.4h2.92v2.55h2.08v2.38h-2.08l.01 3.02c0 1.26.5 1.66 1.48 1.66.2 0 .38-.02.55-.05v2.27c-.41.1-.89.15-1.46.15zm12.88-4.7v.7h-7.65c.25 1.4 1.25 1.95 2.54 1.95 1.31 0 1.78-.56 1.98-.9h2.9c-.42 1.74-2.05 3.05-5 3.05-3.47 0-5.44-1.83-5.44-4.8 0-3.05 2.1-4.97 5.52-4.97 3.28 0 5.15 1.77 5.15 4.96zm-7.6-1.07h4.55c-.05-.87-.66-1.75-2.18-1.75-1.23 0-2.1.56-2.37 1.75zM18.06 55.9V42.94h2.9v.87A4.2 4.2 0 0124 42.7c2.85 0 4.8 1.74 4.8 4.87 0 3.18-2.01 4.9-4.83 4.9a5.07 5.07 0 01-2.9-.82v4.24h-3.01zm5.29-5.8c1.44 0 2.25-.97 2.25-2.5 0-1.54-.8-2.51-2.25-2.51-1.46 0-2.42.99-2.42 2.5 0 1.53.96 2.52 2.42 2.52zm6.72 2.15v-9.3h2.92v1.4c.55-.81 1.26-1.53 3.07-1.53h.64v2.7h-1.03c-1.89 0-2.59.46-2.59 2.53v4.2h-3.01zm9.19-10.36c-1.02 0-1.74-.54-1.74-1.5 0-.95.72-1.5 1.74-1.5s1.73.55 1.73 1.5c0 .96-.71 1.5-1.73 1.5zm-1.5 10.36v-9.3h3v9.3h-3zM44 41.89c-1.02 0-1.74-.54-1.74-1.5 0-.95.72-1.5 1.74-1.5s1.73.55 1.73 1.5c0 .96-.71 1.5-1.73 1.5zM41.1 55.9v-2.28h.28c.8 0 1.11-.18 1.11-1.3v-9.38h3.01v9.5c0 2.29-1.2 3.46-3.7 3.46h-.7zm10.42-3.42c-3.51 0-4.88-1.42-4.88-3.2h2.92c.03.46.53 1.16 2.11 1.16 1.11 0 1.65-.35 1.65-.82 0-.99-2.24-.96-4-1.5-1.3-.39-2.3-1.07-2.3-2.47 0-1.86 1.78-2.94 4.56-2.94 3.24 0 4.35 1.46 4.46 3.15h-2.77c-.1-.56-.58-1.1-1.87-1.1-.96 0-1.41.3-1.41.7 0 .92 2.43.83 4.28 1.5 1.14.4 2.09 1.1 2.09 2.5 0 1.88-1.7 3.02-4.84 3.02z" fill="#000"/></svg>