<svg width="254" height="90" viewBox="0 0 254 90" fill="none" xmlns="http://www.w3.org/2000/svg"><g filter="url(#filter0_d_704_761)"><path d="M36.05 19.36h9.1V23H31.5V4.8h13.32v3.64h-8.77v3.12h7.8v3.51h-7.8v4.29zm25.8-2.88v1.02h-10.9c.34 1.99 1.77 2.77 3.61 2.77 1.87 0 2.54-.8 2.82-1.3h4.14c-.6 2.5-2.93 4.36-7.13 4.36-4.94 0-7.76-2.6-7.76-6.83 0-4.36 3-7.09 7.87-7.09 4.68 0 7.34 2.52 7.34 7.07zM51 14.96h6.48c-.07-1.23-.93-2.49-3.1-2.49-1.76 0-2.99.8-3.38 2.5zM63.66 23V9.74h4.1v1.58c.84-.89 2.07-1.84 4.78-1.84 3.66 0 5.53 1.75 5.53 5.46V23h-4.3v-6.91c0-2.21-.82-3.1-2.55-3.1-2.04 0-3.27 1.21-3.27 3.51V23h-4.29zm27.3 0L85.82 9.74h4.55l3.38 8.84 3.32-8.84h4.48L96.43 23h-5.46zm15.82.32c-3.4 0-5.11-1.68-5.11-4.11 0-1.76.89-3.12 4.22-3.9l4.36-1.02c.67-.15.86-.32.86-.67 0-.67-.64-1.28-2.4-1.28-1.69 0-2.43.56-2.47 1.56h-3.86c0-2.21 1.59-4.49 6.72-4.49 4.12 0 6.18 1.46 6.18 4.64V23h-3.84v-1.32c-.8.76-2.19 1.64-4.66 1.64zm1.08-2.92c1.98 0 3.32-1.17 3.32-2.58v-1.15c-.3.11-.48.13-1.02.26l-2.66.68c-1.33.32-1.72.75-1.72 1.38 0 .83.7 1.41 2.08 1.41zm15.86 2.93c-5 0-6.95-2.02-6.95-4.55h4.16c.04.64.76 1.64 3.01 1.64 1.58 0 2.34-.5 2.34-1.17 0-1.4-3.18-1.36-5.7-2.12-1.84-.56-3.27-1.54-3.27-3.53 0-2.65 2.54-4.19 6.5-4.19 4.62 0 6.2 2.08 6.35 4.49h-3.94c-.16-.8-.83-1.58-2.67-1.58-1.36 0-2.01.43-2.01 1 0 1.32 3.46 1.19 6.1 2.14 1.63.59 2.98 1.58 2.98 3.57 0 2.67-2.41 4.3-6.9 4.3zm14.72-.16c-3.55 0-5.02-1.69-5.02-4.83v-5.22h-1.89V9.74h1.93V6.1h4.16v3.64h2.97v3.38h-2.97l.02 4.31c0 1.8.72 2.36 2.1 2.36.29 0 .55-.02.78-.06v3.23c-.58.13-1.25.21-2.08.21zm18.36-6.7v1.03h-10.9c.35 1.99 1.78 2.77 3.62 2.77 1.87 0 2.54-.8 2.82-1.3h4.14c-.6 2.5-2.93 4.36-7.13 4.36-4.94 0-7.76-2.6-7.76-6.83 0-4.36 3-7.09 7.87-7.09 4.68 0 7.34 2.52 7.34 7.07zm-10.83-1.5h6.48c-.07-1.24-.93-2.5-3.1-2.5-1.75 0-2.99.8-3.38 2.5zm19.15 13.23V9.74h4.14v1.23a6 6 0 014.33-1.56c4.05 0 6.83 2.47 6.83 6.94 0 4.53-2.86 6.97-6.87 6.97-1.82 0-3.12-.5-4.14-1.16v6.04h-4.29zm7.54-8.25c2.06 0 3.2-1.4 3.2-3.58 0-2.19-1.14-3.58-3.2-3.58-2.08 0-3.44 1.41-3.44 3.58s1.36 3.57 3.44 3.57zm9.57 3.05V9.74h4.16v2c.78-1.15 1.8-2.17 4.38-2.17h.91v3.85h-1.47c-2.69 0-3.69.65-3.69 3.6V23h-4.29zm13.1-14.76c-1.46 0-2.48-.78-2.48-2.14 0-1.34 1.02-2.14 2.47-2.14 1.45 0 2.47.8 2.47 2.14 0 1.37-1.02 2.14-2.47 2.14zM193.17 23V9.74h4.29V23h-4.3zm8.9-14.76c-1.46 0-2.47-.78-2.47-2.14 0-1.34 1.01-2.14 2.47-2.14 1.45 0 2.47.8 2.47 2.14 0 1.37-1.02 2.14-2.47 2.14zm-4.12 19.96v-3.25h.39c1.15 0 1.58-.26 1.58-1.86V9.74h4.3v13.54c0 3.25-1.72 4.92-5.27 4.92h-1zm14.83-4.88c-5 0-6.95-2.01-6.95-4.55H210c.04.66.76 1.65 3.01 1.65 1.58 0 2.34-.5 2.34-1.17 0-1.4-3.18-1.36-5.7-2.12-1.84-.56-3.27-1.54-3.27-3.53 0-2.65 2.54-4.19 6.5-4.19 4.62 0 6.2 2.08 6.35 4.49h-3.94c-.16-.8-.83-1.58-2.67-1.58-1.36 0-2.01.43-2.01 1 0 1.32 3.46 1.19 6.1 2.14 1.63.59 2.97 1.58 2.97 3.57 0 2.67-2.4 4.3-6.89 4.3zM10.6 50.17c-3.55 0-5.03-1.69-5.03-4.83v-5.22H3.68v-3.38H5.6V33.1h4.16v3.64h2.96v3.38H9.77l.02 4.31c0 1.8.71 2.36 2.1 2.36.28 0 .54-.02.78-.06v3.23c-.59.13-1.26.21-2.08.21zm11 .16c-4.34 0-7.85-1.95-7.85-6.96 0-5 3.5-6.95 7.84-6.95s7.85 1.95 7.85 6.95-3.51 6.96-7.85 6.96zm0-3.38c1.83 0 3.33-.9 3.33-3.58 0-2.69-1.5-3.57-3.34-3.57-1.86 0-3.33.88-3.33 3.57s1.47 3.58 3.33 3.58zm15.58 3.22c-3.55 0-5.02-1.69-5.02-4.83v-5.22h-1.89v-3.38h1.93V33.1h4.16v3.64h2.97v3.38h-2.97l.02 4.31c0 1.8.72 2.36 2.1 2.36.29 0 .55-.02.78-.06v3.23c-.58.13-1.25.21-2.08.21zM51.8 50V36.44l-4.55 1.73V34.4l6.52-2.6h2.58V50H51.8zm17.04-14.76c-1.45 0-2.47-.77-2.47-2.14 0-1.34 1.02-2.15 2.47-2.15 1.45 0 2.47.8 2.47 2.15 0 1.37-1.02 2.14-2.47 2.14zM64.72 55.2v-3.25h.4c1.14 0 1.57-.26 1.57-1.86V36.74H71v13.54c0 3.25-1.72 4.92-5.27 4.92h-1zm13.26-4.88c-3.4 0-5.12-1.69-5.12-4.11 0-1.76.9-3.12 4.23-3.9l4.35-1.02c.67-.15.87-.32.87-.67 0-.67-.65-1.28-2.4-1.28-1.7 0-2.43.56-2.48 1.56h-3.85c0-2.21 1.58-4.48 6.71-4.48 4.12 0 6.18 1.45 6.18 4.63V50h-3.84v-1.32c-.8.76-2.18 1.65-4.65 1.65zm1.08-2.92c1.97 0 3.31-1.17 3.31-2.58v-1.15c-.3.11-.47.13-1.01.26l-2.67.67c-1.32.33-1.71.76-1.71 1.4 0 .81.7 1.4 2.08 1.4zm14.28 2.93c-3.4 0-5.12-1.7-5.12-4.12 0-1.76.9-3.12 4.23-3.9l4.35-1.02c.68-.15.87-.32.87-.67 0-.67-.65-1.28-2.4-1.28-1.7 0-2.43.56-2.47 1.56h-3.86c0-2.21 1.58-4.48 6.72-4.48 4.11 0 6.17 1.45 6.17 4.63V50H98v-1.32c-.8.76-2.2 1.65-4.66 1.65zm1.08-2.93c1.97 0 3.32-1.17 3.32-2.58v-1.15c-.3.11-.48.13-1.02.26l-2.67.67c-1.32.33-1.7.76-1.7 1.4 0 .81.68 1.4 2.07 1.4zm9.75 2.6V36.74h4.16v2c.78-1.16 1.8-2.17 4.38-2.17h.9v3.85h-1.47c-2.68 0-3.68.65-3.68 3.6V50h-4.29zm10.67.2c-1.45 0-2.47-.83-2.47-2.28 0-1.43 1.02-2.27 2.47-2.27 1.45 0 2.47.84 2.47 2.27 0 1.45-1.02 2.27-2.47 2.27zm11.25-.2V31.8h4.3l9.18 11.4V31.8h4.29V50h-4.3l-9.18-11.4V50h-4.29zm26.03.26c-3.66 0-5.53-1.75-5.53-5.46v-8.06h4.3v6.91c0 2.21.82 3.1 2.55 3.1 2.04 0 3.27-1.21 3.27-3.51v-6.5h4.3V50h-4.1v-1.58c-.85.89-2.08 1.84-4.79 1.84zm25.06.07c-4.34 0-7.85-1.95-7.85-6.96 0-5 3.51-6.95 7.85-6.95 4.33 0 7.84 1.95 7.84 6.95s-3.51 6.96-7.84 6.96zm0-3.38c1.84 0 3.33-.9 3.33-3.58 0-2.69-1.5-3.57-3.33-3.57-1.87 0-3.34.88-3.34 3.57s1.47 3.58 3.34 3.58zm9.66 3.05V36.74h4.1v1.58c.84-.89 2.08-1.84 4.79-1.84 3.66 0 5.52 1.76 5.52 5.46V50h-4.29v-6.91c0-2.21-.82-3.1-2.56-3.1-2.03 0-3.27 1.21-3.27 3.51V50h-4.29zm22.94.33c-4.06 0-6.83-2.48-6.83-6.94 0-4.53 2.86-6.98 6.87-6.98 1.82 0 3.12.5 4.14 1.18V31.8h4.29V50h-4.14v-1.23a6 6 0 01-4.34 1.55zm.88-3.38c2.1 0 3.5-1.41 3.5-3.58s-1.4-3.57-3.5-3.57c-2.08 0-3.25 1.38-3.25 3.57s1.17 3.58 3.25 3.58zm24.61-3.47v1.02h-10.9c.35 1.99 1.78 2.77 3.62 2.77 1.87 0 2.54-.8 2.82-1.3h4.14c-.6 2.5-2.93 4.36-7.13 4.36-4.94 0-7.76-2.6-7.76-6.83 0-4.35 3-7.09 7.87-7.09 4.68 0 7.34 2.52 7.34 7.07zm-10.83-1.52h6.48c-.07-1.23-.93-2.49-3.1-2.49-1.75 0-2.99.8-3.38 2.5zM237.09 50V36.74h4.16v2c.78-1.16 1.8-2.17 4.38-2.17h.9v3.85h-1.47c-2.68 0-3.68.65-3.68 3.6V50h-4.29zM20.76 77V58.8h4.3v6.44c.7-.76 1.94-1.76 4.6-1.76 3.65 0 5.51 1.86 5.51 5.46V77h-4.29v-6.91c0-2.19-.82-3.1-2.53-3.1-2.02 0-3.3 1.28-3.3 3.58V77h-4.29zm31.32-6.52v1.02h-10.9c.35 1.99 1.78 2.77 3.62 2.77 1.86 0 2.54-.8 2.82-1.3h4.14c-.61 2.5-2.93 4.36-7.13 4.36-4.94 0-7.76-2.6-7.76-6.83 0-4.36 2.99-7.09 7.87-7.09 4.68 0 7.34 2.52 7.34 7.07zm-10.83-1.52h6.48c-.07-1.23-.94-2.49-3.1-2.49-1.76 0-3 .8-3.38 2.5zm18.57 8.21c-3.55 0-5.02-1.69-5.02-4.83v-5.22H52.9v-3.38h1.93V60.1H59v3.64h2.97v3.38H59l.02 4.31c0 1.8.72 2.36 2.1 2.36.28 0 .54-.02.78-.06v3.23c-.58.13-1.25.21-2.08.21zm10.53 5.03V63.74h4.14v1.23a6 6 0 014.33-1.55c4.05 0 6.83 2.47 6.83 6.93 0 4.53-2.86 6.98-6.87 6.98-1.82 0-3.12-.5-4.14-1.17v6.04h-4.29zm7.54-8.26c2.06 0 3.2-1.38 3.2-3.57s-1.14-3.58-3.2-3.58c-2.08 0-3.44 1.41-3.44 3.58s1.36 3.57 3.44 3.57zM87.46 77V63.74h4.16v2c.78-1.16 1.8-2.17 4.38-2.17h.91v3.85h-1.47c-2.69 0-3.69.65-3.69 3.6V77h-4.29zm13.1-14.76c-1.46 0-2.48-.77-2.48-2.14 0-1.34 1.02-2.15 2.47-2.15 1.45 0 2.47.8 2.47 2.15 0 1.37-1.02 2.14-2.47 2.14zM98.4 77V63.74h4.29V77h-4.3zm8.9-14.76c-1.46 0-2.47-.77-2.47-2.14 0-1.34 1.01-2.15 2.47-2.15 1.45 0 2.47.8 2.47 2.15 0 1.37-1.02 2.14-2.47 2.14zm-4.12 19.96v-3.25h.39c1.15 0 1.58-.26 1.58-1.86V63.74h4.3v13.54c0 3.25-1.72 4.92-5.27 4.92h-1zm14.84-4.88c-5.01 0-6.96-2.01-6.96-4.54h4.16c.04.64.76 1.64 3.01 1.64 1.58 0 2.34-.5 2.34-1.17 0-1.4-3.18-1.36-5.7-2.12-1.84-.56-3.27-1.54-3.27-3.53 0-2.65 2.54-4.18 6.5-4.18 4.62 0 6.2 2.08 6.35 4.48h-3.94c-.16-.8-.83-1.58-2.67-1.58-1.36 0-2.01.43-2.01 1 0 1.32 3.46 1.19 6.1 2.14 1.63.59 2.98 1.58 2.98 3.58 0 2.66-2.41 4.28-6.9 4.28zm8.56 4.88V63.74h4.14v1.23a6 6 0 014.33-1.55c4.05 0 6.83 2.47 6.83 6.93 0 4.53-2.86 6.98-6.87 6.98-1.82 0-3.12-.5-4.14-1.17v6.04h-4.29zm7.54-8.26c2.06 0 3.2-1.38 3.2-3.57s-1.14-3.58-3.2-3.58c-2.08 0-3.44 1.41-3.44 3.58s1.36 3.57 3.44 3.57zM143.7 77V58.8h4.3V77h-4.3zm11.29.33c-3.4 0-5.12-1.7-5.12-4.12 0-1.76.9-3.12 4.23-3.9l4.35-1.02c.67-.15.87-.33.87-.67 0-.67-.65-1.28-2.4-1.28-1.7 0-2.43.56-2.48 1.56h-3.85c0-2.21 1.58-4.49 6.71-4.49 4.12 0 6.18 1.46 6.18 4.64V77h-3.84v-1.32c-.8.76-2.18 1.64-4.65 1.64zm1.08-2.93c1.97 0 3.31-1.17 3.31-2.58v-1.15c-.3.11-.47.13-1.01.26l-2.67.67c-1.32.33-1.71.76-1.71 1.4 0 .81.7 1.4 2.08 1.4zm16.3-12.4c-1.03 0-1.37.31-1.37 1.37v.37h2.6v3.38H171V77h-4.31v-9.88h-1.85v-3.38h1.85v-.43c0-2.9 1.66-4.55 5.4-4.55.6 0 1.1.04 1.57.08v3.25c-.4-.04-.9-.08-1.3-.08zm9.55 15.33c-4.33 0-7.84-1.95-7.84-6.96 0-5 3.51-6.96 7.84-6.96 4.34 0 7.85 1.95 7.85 6.96 0 5-3.51 6.95-7.85 6.95zm0-3.39c1.85 0 3.34-.88 3.34-3.57s-1.5-3.58-3.34-3.58c-1.86 0-3.33.9-3.33 3.58 0 2.69 1.47 3.57 3.33 3.57zM191.6 77V63.74h4.1v1.58c.84-.89 2.07-1.84 4.78-1.84 3.66 0 5.53 1.76 5.53 5.46V77h-4.3v-6.91c0-2.21-.81-3.1-2.55-3.1-2.03 0-3.27 1.21-3.27 3.51V77h-4.29zm22.93.33c-4.05 0-6.82-2.47-6.82-6.94 0-4.53 2.86-6.98 6.87-6.98 1.82 0 3.12.5 4.14 1.17V58.8h4.28V77h-4.13v-1.23a6 6 0 01-4.34 1.56zm.9-3.39c2.1 0 3.48-1.4 3.48-3.57s-1.39-3.58-3.49-3.58c-2.08 0-3.25 1.4-3.25 3.58 0 2.19 1.17 3.57 3.25 3.57zm11.93 3.25c-1.45 0-2.47-.82-2.47-2.27 0-1.43 1.02-2.28 2.47-2.28 1.45 0 2.47.85 2.47 2.28 0 1.45-1.02 2.27-2.47 2.27z" fill="#fff"/></g><defs><filter id="filter0_d_704_761" x=".68" y=".96" width="252.86" height="88.25" filterUnits="userSpaceOnUse" color-interpolation-filters="sRGB"><feFlood flood-opacity="0" result="BackgroundImageFix"/><feColorMatrix in="SourceAlpha" values="0 0 0 0 0 0 0 0 0 0 0 0 0 0 0 0 0 0 127 0" result="hardAlpha"/><feOffset dx="2" dy="2"/><feGaussianBlur stdDeviation="2.5"/><feComposite in2="hardAlpha" operator="out"/><feColorMatrix values="0 0 0 0 0 0 0 0 0 0 0 0 0 0 0 0 0 0 0.3 0"/><feBlend mode="multiply" in2="BackgroundImageFix" result="effect1_dropShadow_704_761"/><feBlend in="SourceGraphic" in2="effect1_dropShadow_704_761" result="shape"/></filter></defs></svg>